<?xml version="1.0" encoding="utf-8"?>
<!-- Generator: Adobe Illustrator 16.0.0, SVG Export Plug-In . SVG Version: 6.00 Build 0)  -->
<!DOCTYPE svg PUBLIC "-//W3C//DTD SVG 1.1//EN" "http://www.w3.org/Graphics/SVG/1.1/DTD/svg11.dtd">
<svg version="1.1" id="Warstwa_1" xmlns="http://www.w3.org/2000/svg" xmlns:xlink="http://www.w3.org/1999/xlink" x="0px" y="0px"
	 width="425px" height="496px" viewBox="0 0 425 496" enable-background="new 0 0 425 496" xml:space="preserve">
<rect x="0.001" y="-0.063" fill="#FFFFFF" width="425.195" height="496.063"/>
<path d="M208.321,81.917l-1.814-0.225c-1.951-0.264-5.297,1.162-5.459,1.23l-1.062,0.469l0.983,0.649
	c1.878,1.235,3.616,1.646,5.112,1.191c1.902-0.576,2.684-2.358,2.72-2.432l0.325-0.771L208.321,81.917L208.321,81.917z
	 M178.27,425.134h0.061l0.653-0.82l-0.459-1.504c0.456-8.032,11.74-26.362,11.74-26.362s23.669,0.698,27.458,0.186l6.625,24.087
	c-3.143,2.314-3.748,3.989-3.15,4.409c5.283-2.612,15.693-3.75,21.49-2.656c0.559,0.098,11.664,2.954,12.627,2.549
	c-0.898-1.001-2.637-2.319-2.828-3.662c-0.203-1.294-0.141-2.427-0.141-2.427c-1.355-19.814,8.029-92.036,8.029-92.92
	c1.078-8.032,3.26-0.835,3.26-0.835s19.008,91.665,20.256,97.915l0.043,0.273l0.467,1.455l4.047,0.005l0.488-1.733
	c3.965-14.004,27.041-94.531,27.041-94.814c1.91-6.011,3.824-1.123,3.824-1.123c3.037,3.452,5.238,92.749,5.102,92.925
	c-5.068,2.944-4.15,5.049-4.076,5.049c11.205-5.669,32.539-0.103,32.861-0.347l-9.043-8.403l0,0
	c-2.197-8.384-9.561-123.892-9.42-127.119c-0.521-2.368,5.195-5.894,5.543-5.894c-11.348,2.114-21.543,1.069-26.592,0.107
	c-2.936-0.674,3.002,2.402,2.471,4.697c-1.338,13.486-24.254,82.881-24.063,82.646c-5.098-4.795-15.816-79.189-15.855-80.22
	c-0.393-3.32,5.365-5.908,4.4-7.227c-12.121,5.464-29.377,0.005-29.377,0.005c-1.926,0.884,3.85,3.154,3.686,8.154
	c-0.158,5.059-9.24,107.842-10.842,116.88c-0.506,2.939-0.984,6.108-2.051,8.921l-1.004-1.494
	c-10.512-19.883-16.436-67.007-16.041-68.911c0.316-1.904,4.223-3.032,4.223-3.032l-23.892-0.19
	c-0.354,5.923-29.821,68.423-36.66,74.429l-0.026-0.024c0,0,0.776-120.059,0.759-126.309c-0.083-4.941,6.226-8.428,6.226-8.428
	l-0.914,0.137c-3.54,1.04-7.969,1.563-12.812,1.563c-4.795,0-9.166-0.615-12.688-1.699c-1.497-0.298-1.786,0.151-1.786,0.264
	l1.689,2.197c8.306,7.612-0.806,54.98-1.382,56.016c-38.781,114.111-54.225,46.968-54.225,46.968
	c-4.18-18.579,5.54-94.253,5.82-94.414c2.6-5.156,10.657-10.01,10.473-10.61l-0.224-0.249c-15.095,6.987-38.909-0.288-39.086-0.156
	l-0.058,0.015v0.151c-0.987,0.532,8.693,4.897,9.014,8.853c-0.054,1.953-5.448,87.852-5.448,87.529
	c-1.286,44.648,25,45.195,25,45.195c34.809-0.571,50.304-66.308,50.614-67.988c0.379-1.719,2.251-0.986,2.251-0.986l0.355,60.913
	l-1.221,3.252l-2.796,4.81c9.058-3.032,18.248-2.393,27.397-0.425C177.234,424.956,178.003,425.104,178.27,425.134L178.27,425.134z
	 M337.246,201.423L337.246,201.423c-5.336,0.298-19.092-2.734-31.318-37.417c-0.648-1.802-1.615-2.729-2.637-2.549
	c-1.313,0.229-2.035,2.109-2.035,5.298v0.073c0.004,10.835,1.367,47.275,18.613,61.464c5.889,4.854,13.129,6.519,21.445,5.088
	c-2.666,9.399-7.861,15.342-13.975,15.947c-8.346,0.806-17.441-8.022-25.576-24.873c-1.969-4.229-4.629-12.49-7.441-21.235
	c-6.035-18.608-10.213-30.898-13.434-32.168c-1.256-0.488-2.109-0.146-2.592,0.244c-1.396,1.113-2.951,4.546-0.545,21.45
	c2.029,11.597,6.34,18.345,10.09,21.196c-5.016,1.045-13.604,0.83-24.371-33.472c-1.193-3.687-2.512-5.493-3.984-5.381
	c-1.836,0.156-2.633,3.169-2.996,5.654c-0.762,5.068,1.838,15.078,3.953,20.029c-7.246-6.187-20.027-22.9-15.324-37.354
	c2.965,5.249,4.766,7.124,4.83,7.202l0.371,0.381l0.449-0.322l6.412-4.819l9.059,4.858l0.594,0.332l0.273-0.635l3.006-6.997
	l9.076,3.54l0.576,0.244l0.221-0.635l1.965-5.991l7.879,4.019l0.742,0.376l0.15-0.791l2.021-9.009l9.648,4.18l0.869,0.386v-0.962
	l-0.004-10.894l9.541-0.005h0.625v-0.645l-0.006-6.45l7.76-0.85l0.576-0.063l-0.029-0.576l-0.342-15.542
	c-0.016-0.303-0.264-2.49-1.617-3.291c-0.43-0.254-1.117-0.483-2.094-0.098c-1.641,0.698-3.447,2.08-3.619,3.892
	c-0.15,1.27,0.641,2.442,2.09,3.54v6.284c-0.199,0.308-1.625,2.017-7.539,0.107l-0.824-0.273v0.864c0,6.787-1.275,7.554-7.779,8.413
	l-0.4,0.054l-0.131,0.376c-0.963,2.949-1.758,5.083-3.326,5.713c-1.391,0.571-3.578,0.015-6.857-1.738l-0.77-0.4l-0.15,0.84
	c-0.125,0.742-0.244,1.431-0.348,2.109c-0.365,2.495-0.666,4.473-1.813,5.01c-1.033,0.522-2.992-0.063-5.971-1.758l-0.668-0.386
	l-0.254,0.752c-0.172,0.552-0.329,1.123-0.504,1.67c-0.746,2.593-1.48,5.029-2.783,5.371c-1.105,0.288-2.891-0.771-5.264-3.12
	l-0.533-0.513l-0.439,0.591c-2.822,3.994-5.389,5.933-7.588,5.796c-1.658-0.103-3.203-1.411-4.568-3.926l-0.393-0.742l-0.604,0.591
	c-2.481,2.485-4.203,3.501-5.609,3.325c-1.279-0.171-2.506-1.328-3.936-3.76l-0.049-0.073l-0.045-0.059
	c-0.646-0.615-1.541-1.182-2.357-1.65c-0.27-0.156-0.566-0.347-0.811-0.503c0.424-0.044,1.115-0.088,2.262-0.088l0.234-0.005
	c7.201-0.005,26.314-0.01,39.766-9.077c14.695-9.863,29.813-21.313,23.855-32.368c0.033-1.597,0.713-2.349,2.338-3.999
	c1.188-1.201,1.748-4.16,1.748-6.372c0-1.318-0.17-3.052-1.016-3.896l-0.463-0.459l-0.42,0.459
	c-0.895,0.884-1.338,1.875-1.738,2.842c-0.684,1.563-1.416,3.052-4.072,4.312c-0.82-1.65-1.445-3.042-1.914-4.165
	c-1.309-2.939-1.959-4.443-4.014-4.443l-0.65,0.01v0.645c0,0.938,0.342,2.051,0.699,3.242c0.502,1.792,1.084,3.823,0.473,5.366
	c-2.969,1.157-6.352,5.405-6.352,8.169v0.835l0.801-0.22c0.98-0.293,1.816-0.649,2.5-0.938c0.537-0.22,1.26-0.547,1.455-0.479
	c0.033,0.01,0.189,0.2,0.189,1.27c0,0.713-0.059,1.387-0.098,2.031c-0.17,2.314-0.293,4.312,2.002,6.611l0.777,0.771l0.264-1.055
	c1.406-5.308,3.822-7.969,4.428-7.959c0.039,0.034,0.152,0.205,0.152,0.928c0,3.862-1.031,9.063-9.146,15.02
	c-5.527,4.038-19.785,13.721-33.129,15.977c0.016,0-2.635,0.449-2.635,0.449c-9.654,1.694-15.611,2.637-19.771-3.408
	c7.076-0.405,44.84-3.242,55.096-17.856l0.26-0.381l-0.273-0.361c-2.451-3.198-8.17-13.296-5.43-21.616
	c1.586-4.775,5.762-8.135,12.412-10.005c6.352-1.479,11.523,1.25,14.721,3.804c5.957,4.751,10.112,12.739,10.117,19.468
	c0.133,6.455,1.211,27.886,10.098,32.915c2.721,1.543,5.996,1.323,9.609-0.474c-0.658,3.301-2.797,7.915-6.947,9.214
	c-4.346,1.372-9.771-1.533-15.645-8.408c-0.67-0.679-1.627-1.455-2.594-1.064c-0.957,0.391-1.387,1.855-1.387,4.834
	c0,0.273,0.553,26.929,12.564,35.537c3.633,2.603,7.924,3.149,12.758,1.802C346.406,197.664,342.486,201.116,337.246,201.423
	L337.246,201.423z M291.998,213.494l1.064,1.46c-2.978-9.976-6.387-19.971-7.449-20.986l0.002-0.01c0,0-0.039,0.01-0.064,0.02
	l-0.098,0.039c0,0-0.098,0.059-0.137,0.059v0.015l-0.125,0.088l-0.146,0.112l-0.049,0.039l-0.066,0.044l-0.029,0.054l-0.068,0.063
	v0.024c-0.049,0.034-0.049,0.093-0.092,0.127l-0.068,0.142l-0.145,0.215l-0.1,0.264v0.059c-0.034,0.098-0.047,0.21-0.059,0.244
	c0,0-0.018,0.073-0.018,0.117l-0.119,0.283c0.002,0.02,0.002,0.049,0.002,0.034c0,0-0.031,0.371-0.031,0.327v0.146v0.337
	c0,0,0.002,0.195,0.002,0.161c0,0,0.029,0.376,0.029,0.356v0.156c0,0.049,0.089,0.41,0.089,0.381l0.046,0.215l0.016,0.054v0.054
	l0.045,0.371c0,0.059,0.053,0.264,0.053,0.249l0.082,0.425l0.11,0.244l0.009,0.02v0.039l0.141,0.518
	c0.014,0.059,0.068,0.229,0.068,0.229l0.189,0.547l0.012,0.044v0.059l0.068,0.244l0.227,0.483l0.02,0.049v0.034l0.105,0.347
	c0.031,0.049,0.244,0.532,0.254,0.566c0,0,0.17,0.42,0.17,0.391l0.299,0.635c0,0,0.188,0.454,0.154,0.41
	c0,0,0.336,0.635,0.383,0.679c0,0,0.229,0.503,0.197,0.474c0,0,0.363,0.703,0.35,0.679c0,0,0.258,0.503,0.244,0.488
	c0,0,0.459,0.757,0.424,0.747l0.303,0.498c0,0,0.504,0.791,0.516,0.835c0,0,0.291,0.566,0.291,0.518c0,0,0.52,0.835,0.51,0.825
	l0.359,0.562c0,0,0.625,0.952,0.625,0.977c0,0,0.371,0.571,0.336,0.537c0,0,0.758,1.089,0.777,1.113
	C291.705,213.02,292.012,213.523,291.998,213.494L291.998,213.494L291.998,213.494z M257.797,233.84h-0.006
	c-0.883-0.845-9.912-12.1-8.531-18.975c1.045-6.631-2.45-13.34-5.545-19.248c-0.588-1.147-1.15-2.222-1.666-3.276
	c-1.232-2.519-2.031-2.637-2.25-2.622c-0.682,0.059-1.404,1.533-1.66,2.52c0,0-0.037,0.161-0.025,0.146l-0.127,0.117
	c-0.941,1.26-5.969,18.794-5.059,20.459l0.078,0.059l0.029,0.122c2.945,7.138,5.479,10.962,7.533,11.372
	c1.176,0.239,2.184-0.762,3.15-1.733l0.283-0.278l0.447-0.449l0.43,0.459c5.354,5.293,7.652,10.02,7.656,15.776v0.498l-0.471,0.127
	c-6.863,1.733-11.5,5.362-12.75,9.932c-0.68,2.573-0.16,5.137,1.404,6.685c2.393,2.383,4.957,3.496,7.479,3.232
	c1.779-0.205,3.332-1.274,4.637-2.72c-2.293,0.015-4.518-0.879-5.623-2.412c-0.953-1.313-0.975-2.891,0-4.492
	c1.107-1.563,2.461-2.421,4.063-2.573c3.582-0.298,7.371,2.978,10.295,5.888c2.854,2.817,5.693,7.666,3.627,14.814
	c3.359,0.107,5.645-0.61,6.729-2.246c2.439-3.823-1.506-11.826-4.027-16.552l-0.137-0.059l0.109-0.029
	c-0.234-0.396-0.473-0.825-0.658-1.181c-0.41-0.776-0.775-1.426-1.035-1.958l-0.426-0.831l0.934-0.068
	c7.662-0.645,11.303,1.582,13.004,3.565c1.727,1.972,2.084,4.301,1.898,6.108c1.861-0.264,4.834-1.665,4.83-8.174
	c-0.002-6.572-8.646-6.567-11.504-6.567c-0.656,0-1.361,0.083-2.051,0.151c-1.713,0.21-3.336,0.376-4.336-0.518
	c-0.51-0.479-0.771-1.171-0.771-2.1c-0.004-3.745,7.283-4.775,11.098-4.932c-1.586-3.959-3.588-6.304-5.934-6.826
	c-4.438-0.981-9.664,4.219-13.887,8.403l-0.377,0.386l-0.428,0.43L257.797,233.84L257.797,233.84L257.797,233.84z M272.906,249.655
	c1.645,1.162,2.875,2.632,3.754,4.375c-0.23-1.079-0.656-2.275-1.576-3.174C274.502,250.275,273.775,249.88,272.906,249.655
	L272.906,249.655L272.906,249.655z M230.93,179.27L230.93,179.27l-0.775-0.493l-0.182,0.894c-0.615,2.798-2.518,9.985-4.373,12.705
	c-0.842-1.416-1.711-3.052-2.555-4.688c-1.613-3.154-3.148-6.133-4.672-7.627l-0.77-0.757l-0.273,1.025
	c-0.912,3.228-1.438,5.703-1.848,7.69c-0.557,2.583-0.91,4.15-1.644,5.21c-3.95-4.248-6.919-11.772-6.966-11.846l-0.666-1.753
	l-0.506,1.816l-2.995,10.649c-1.32-1.055-4.292-3.97-4.463-9.082l-0.068-2.368l-1.116,2.104l-3.923,7.495
	c-1.575-1.948-6.001-9.023-3.532-23.403c3.068,5.342,7.106,9.507,7.292,9.692l0.829,0.815l0.234-1.138l1.774-8.555
	c2.168,3.208,4.863,7.627,4.863,8.901v1.514l1.094-1.069c2.878-2.9,5.574-7.153,6.345-9.702c2.024,2.139,4.71,5.928,5.263,9.697
	l1.26-0.112l-0.068,0.259c0.059-0.098,0.367-0.625,0.707-1.187c2.439-3.989,4.744-7.871,5.723-10.269
	c2.178,5.195,3.965,11.641,3.984,11.719l0.207,0.791l0.709-0.42c0.236-0.161,5.129-3.159,8.107-8.486
	c-0.154,9.668-1.297,12.705-4.65,16.274C232.912,180.837,231.012,179.324,230.93,179.27L230.93,179.27z M227.518,204.045
	c0.76-1.206,2.543-4.775,2.738-10.396c-1.68,0.85-4.771,4.165-6.793,6.709l-0.684,0.874l-0.404-1.035
	c-0.01-0.059-1.629-4.375-3.197-8.032l-4.883,8.799c0,0-0.158,0.317-0.313,0.576l0.346,0.737c0.049,0.088,3.619,7.739,6.037,10.776
	c2.318-8.374,4.35-10.63,4.447-10.732l0.447-0.435l0.438,0.43L227.518,204.045L227.518,204.045L227.518,204.045z M221.488,220.876
	L221.488,220.876c-1.041,1.001-2.529,0.357-2.609,0.328l-0.865-0.386c-0.01,0-0.01,0.971-0.01,0.971
	c0,0.025-0.078,3.165-2.158,6.973c-1.971-0.771-2.806-2.432-3.953-4.908c-0.285-0.625-0.579-1.27-0.938-1.968l-0.734-1.459
	l-0.425,1.562c-1.262,4.531,1.398,9.546,6.388,11.929c0.766,0.376,1.127,0.869,1.1,1.519c-0.061,1.635-2.461,3.93-4.395,4.731
	c-0.723,0.289-1.182,0.289-1.35,0.171c-14.321-33.901-13.967-41.03-12.983-45.185c3.291,1.709,5.899,5.771,5.938,5.82l0.771,1.284
	l0.366-1.455c0.01-0.054,0.953-3.77,2.346-7.236c1.868,2.192,5.205,7.354,5.262,7.422l0.319,0.479l-0.368,0.806l-3.887,8.765
	c-1.054-1.011-3.286-3.311-5.512-6.616l-1.138,0.488c1.818,8.462,4.216,11.254,6.944,13.804l1.06,0.986v-1.431
	c0.031-0.678,2.094-5.292,3.704-7.548c0.83,3.174,4.045,6.596,4.482,7.011c0.482,0.503,1.025,0.938,1.494,1.318
	c0.639,0.533,1.355,1.133,1.38,1.465C221.716,220.651,221.576,220.808,221.488,220.876L221.488,220.876z M220.445,251.066
	L220.445,251.066c0.449,1.289,0.379,2.383-0.281,3.34c-1.793,2.588-7.153,3.462-8.454,3.462c-1.321,0-10.542-1.152-10.545-5.82
	c0-3.881,7.642-5.068,10.577-5.18C216.346,246.857,220.115,250.734,220.445,251.066L220.445,251.066z M225.529,284.377
	L225.529,284.377c3.779,3.291,8.574,4.702,14.242,4.307c-1.479,2.773-4.297,4.556-7.693,4.678
	c-5.582,0.161-10.755-3.774-13.818-10.542l-0.895-1.938l-0.299,2.095c-0.811,5.435,6.799,17.861,18.957,24.453
	c-1.188,1.201-2.922,2.036-5.082,2.095c-4.316,0.151-8.996-2.183-12.531-6.26l-0.621-0.723l-0.408,0.869
	c-0.703,1.47,0.219,3.169,1.211,4.976c0.777,1.401,1.557,2.852,1.557,4.175c0,0.923-0.203,9.004-7.206,13.433
	c-7.008-4.424-7.253-12.5-7.253-13.428c0-1.333,0.773-2.773,1.548-4.175c0.974-1.812,1.882-3.506,1.191-4.976l-0.403-0.874
	l-0.622,0.728c-3.511,4.053-8.155,6.396-12.457,6.289c-2.173-0.073-3.917-0.884-5.122-2.109
	c12.081-6.587,19.719-18.994,18.972-24.424l-0.305-2.153l-0.908,1.958c-3.069,6.768-8.258,10.718-13.823,10.547
	c-3.394-0.132-6.165-1.89-7.623-4.624c5.501,0.64,10.218-0.566,13.938-3.696c8.112-6.787,9.143-19.927,9.262-22.72l7.161-0.005
	C216.633,265.065,217.682,277.487,225.529,284.377L225.529,284.377z M193.798,212.966c0.91-1.719-4.119-19.204-5.047-20.43
	l-0.137-0.127l-0.036-0.166c-0.282-0.972-0.982-2.446-1.651-2.505c-0.227-0.015-1.025,0.098-2.254,2.632
	c-0.522,1.04-1.069,2.119-1.687,3.262c-3.076,5.923-6.561,12.632-5.517,19.238c1.343,6.772-7.515,18.002-8.511,18.994l-0.454,0.43
	l-0.422-0.43l-0.45-0.439c-4.204-4.146-9.453-9.332-13.859-8.335c-2.329,0.532-4.29,2.861-5.872,6.826
	c3.785,0.151,11.084,1.177,11.087,4.927c0,0.928-0.276,1.621-0.794,2.095c-0.981,0.883-2.593,0.722-4.303,0.522
	c-0.693-0.063-1.429-0.151-2.083-0.151c-2.827,0.005-11.486,0.005-11.484,6.582c0.002,6.508,2.991,7.91,4.848,8.168
	c-0.2-1.812,0.191-4.15,1.903-6.118c1.699-1.978,5.342-4.204,12.971-3.569l0.927,0.069l-0.415,0.82
	c-0.259,0.513-0.583,1.138-0.993,1.875c-2.4,4.423-7.422,13.715-4.725,17.895c1.072,1.65,3.345,2.378,6.714,2.256
	c-2.056-7.139,0.78-11.992,3.624-14.819c2.69-2.676,6.688-6.201,10.317-5.894c1.606,0.151,2.957,1.006,4.097,2.603
	c0.923,1.567,0.917,3.159-0.034,4.463c-1.121,1.533-3.337,2.432-5.623,2.417c1.304,1.455,2.849,2.52,4.621,2.7
	c2.524,0.273,5.105-0.83,7.483-3.223c1.55-1.548,2.082-4.102,1.379-6.694c-1.243-4.565-5.884-8.193-12.71-9.912l-0.491-0.127v-0.493
	c-0.002-5.757,2.277-10.483,7.627-15.786l0.446-0.459l0.455,0.459l0.259,0.269c0.974,0.961,1.963,1.958,3.171,1.729
	c2.056-0.41,4.567-4.239,7.502-11.377l0.052-0.117L193.798,212.966L193.798,212.966L193.798,212.966z M149.367,254.411
	L149.367,254.411c0.209-1.157,0.662-2.515,1.633-3.501c0.603-0.62,1.417-1.001,2.307-1.226
	C151.554,250.93,150.253,252.517,149.367,254.411L149.367,254.411z M132.738,215.085L132.738,215.085
	c2.967-9.98,6.354-19.99,7.466-21.055c0.259,0.054,0.68,0.229,0.998,0.859C141.952,196.326,142.592,201.189,132.738,215.085
	L132.738,215.085z M165.533,200.828L165.533,200.828c2.108-4.946,4.717-14.966,3.973-20.034c-0.369-2.5-1.189-5.493-3.027-5.654
	c-1.465-0.117-2.798,1.689-4.006,5.386c-10.705,34.282-19.316,34.531-24.311,33.491c3.759-2.837,8.053-9.595,10.036-21.182
	c2.417-16.963,0.845-20.376-0.537-21.47c-0.493-0.391-1.331-0.742-2.588-0.244c-3.213,1.27-7.417,13.613-13.435,32.285
	c-2.796,8.701-5.444,16.904-7.397,21.147c-8.13,16.832-17.203,25.679-25.549,24.868c-6.136-0.605-11.318-6.553-14.007-15.937
	c8.328,1.42,15.555-0.245,21.453-5.103c17.224-14.194,18.554-50.639,18.549-61.469v-0.088c0-3.184-0.715-5.063-2.006-5.293
	c-1.041-0.181-2,0.747-2.656,2.544c-12.153,34.673-25.917,37.725-31.272,37.446c-5.236-0.298-9.175-3.755-10.556-7.241
	c4.856,1.348,9.174,0.786,12.805-1.812c11.984-8.613,12.54-35.273,12.54-35.547c-0.003-2.979-0.433-4.443-1.416-4.834
	c-0.936-0.4-1.898,0.386-2.529,1.021c-5.904,6.929-11.319,9.824-15.667,8.467c-4.155-1.309-6.286-5.923-6.933-9.209
	c3.606,1.792,6.834,2.012,9.578,0.464c8.867-4.995,9.958-26.455,10.085-32.92c-0.002-6.724,4.149-14.727,10.085-19.463
	c3.225-2.568,8.386-5.303,14.765-3.809c6.624,1.846,10.79,5.22,12.397,9.995c2.756,8.34-2.939,18.413-5.397,21.602l-0.283,0.366
	l0.253,0.376c10.251,14.614,48.01,17.412,55.102,17.822c-4.13,6.045-10.107,5.098-19.736,3.418l-2.661-0.449
	c-13.354-2.251-27.621-11.904-33.148-15.952c-8.098-5.947-9.144-11.147-9.144-15.01c0-0.703,0.14-0.894,0.146-0.918
	c0.621,0.005,2.999,2.666,4.397,7.949l0.291,1.05l0.766-0.767c2.327-2.29,2.171-4.282,2.005-6.582
	c-0.054-0.669-0.096-1.338-0.096-2.061c-0.002-1.069,0.125-1.265,0.156-1.284c0.198-0.059,0.945,0.259,1.494,0.488
	c0.684,0.288,1.521,0.645,2.529,0.933l0.79,0.22L131.367,117c0-2.764-3.399-6.997-6.408-8.159c-0.577-1.547-0.018-3.579,0.509-5.366
	c0.342-1.187,0.654-2.314,0.654-3.252v-0.645l-0.622-0.01c-2.051,0-2.704,1.484-3.993,4.419c-0.474,1.123-1.099,2.529-1.94,4.185
	c-2.622-1.255-3.345-2.734-4.038-4.292c-0.416-0.977-0.85-1.973-1.742-2.876l-0.446-0.43l-0.447,0.449
	c-0.899,0.894-1.011,2.856-1.011,3.94c0.003,2.217,0.562,5.146,1.775,6.328c1.54,1.548,2.305,2.349,2.334,4.009
	c-6.395,11.973,12.492,24.712,23.861,32.344c13.431,9.053,32.576,9.043,39.798,9.043l0.222-0.005c1.128,0,1.836,0.044,2.259,0.088
	c-0.269,0.156-0.575,0.356-0.819,0.503c-0.801,0.474-1.724,1.03-2.363,1.65l-0.054,0.063l-0.036,0.068
	c-1.448,2.432-2.632,3.589-3.915,3.765c-1.396,0.171-3.139-0.835-5.637-3.32l-0.579-0.596l-0.41,0.747
	c-1.374,2.51-2.915,3.828-4.582,3.945c-2.2,0.122-4.773-1.812-7.607-5.806l-0.437-0.591l-0.515,0.518
	c-2.381,2.349-4.131,3.408-5.249,3.135c-1.313-0.332-2.039-2.754-2.796-5.317c-0.172-0.571-0.356-1.147-0.552-1.733l-0.222-0.747
	l-0.684,0.391c-2.967,1.699-4.915,2.275-5.954,1.748c-1.123-0.532-1.434-2.515-1.816-5.015c-0.088-0.669-0.199-1.362-0.345-2.095
	l-0.15-0.84l-0.771,0.4c-3.285,1.753-5.448,2.319-6.833,1.743c-1.568-0.64-2.371-2.764-3.333-5.708l-0.127-0.381l-0.394-0.054
	c-6.496-0.85-7.783-1.621-7.785-8.403v-0.869l-0.826,0.273c-5.848,1.899-7.298,0.259-7.532-0.098l-0.002-6.279
	c1.44-1.104,2.212-2.295,2.085-3.55c-0.193-1.812-2.015-3.188-3.643-3.877c-0.967-0.396-1.67-0.161-2.074,0.098
	c-1.351,0.796-1.591,2.988-1.62,3.237c0,0.059-0.352,15.591-0.352,15.591v0.576l0.573,0.059l7.78,0.85l0.003,6.45v0.645l0.634,0.01
	l9.521-0.005l0.005,10.903v0.967l0.869-0.391l9.636-4.185l2.02,8.994l0.156,0.806l0.744-0.371l7.886-4.028l1.935,5.986l0.229,0.64
	l0.601-0.244l9.026-3.55l3.052,6.997l0.269,0.635l0.605-0.332l9.069-4.868l6.392,4.819l0.42,0.313l0.378-0.371
	c0.074-0.088,1.857-1.963,4.834-7.212C185.548,177.903,172.76,194.631,165.533,200.828L165.533,200.828z M196.832,147.83
	c-2.067,3.818-6.564,7.3-7.919,8.281c1.899,6.758,5.686,11.064,7.151,12.534c0.293-0.972,0.734-3.223,0.734-8.315v-1.514l1.08,1.064
	l1.616,1.582l6.902,6.836c0.662-0.962,1.108-2.28,1.538-3.901c0.5-1.89,1.062-4.004,2.249-6.191l0.402-0.742l0.601,0.576
	c1.119,1.133,1.831,2.637,2.659,4.38c0.908,1.958,2.012,4.146,3.893,6.226c1.977-1.816,2.854-5.283,3.446-7.905
	c0.407-1.846,0.743-3.164,1.335-3.77l0.439-0.439l0.447,0.439c1.289,1.265,4.4,5.728,7.867,12.744
	c3.111-4.219,5.113-16.421,4.26-17.69l-6.393-6.313c-0.543,0.991-1.559,3.501-1.559,8.799v0.64l-0.631-0.005
	c-2.451,0-4.641-2.939-6.75-5.776c-0.853-1.128-1.676-2.217-2.525-3.135c-3.545,4.033-3.4,10.303-3.4,10.361l-1.172,0.322
	c-0.039-0.088-4.614-8.774-7.378-11.973c-2.456,3.14-4.438,11.733-4.453,11.826l-0.52,2.31l-0.708-2.256
	C200.013,156.755,198.49,151.829,196.832,147.83L196.832,147.83L196.832,147.83z M193.414,139.822L193.414,139.822v0.161
	c0.01,2.188,0.023,3.901-0.763,4.688c-0.257,0.244-0.77,0.288-1.209,0.366c0.12-2.925,0.83-4.312,1.426-4.907
	C193.092,139.958,193.251,139.905,193.414,139.822L193.414,139.822z M200.272,125.803L200.272,125.803
	c4.208-6.265,9.753-18.896-0.371-33.052l-0.037-0.044l-0.034-0.039c-2.106-2.095-3.545-2.7-4.248-2.891L194.912,87l-0.121-0.483
	h-0.488c-1.062,0.005-5.408,1.177-7.715,2.271c-0.183-0.913-0.352-2.578,0.667-3.799c1.289-1.557,4.185-2.017,8.367-1.323h0.062
	h0.034c1.465,0,1.821-1.304,2.188-2.568c0.278-0.957,0.621-2.173,1.447-3.296c2.603-3.501,6.011-3.521,10.363-2.48
	c3.763,0.952,10.625,3.687,14.174,6.821c5.211,4.6,6.1,10.449,6.183,15.259c-2.032-0.884-3.657-1.191-4.79-0.649
	c-0.988,0.469-1.615,1.445-1.949,3.003c-1.947,9.385-0.396,19.233,4.396,27.71c4.611,7.852,5.918,13.56,6.271,16.772
	c-0.951-1.245-1.787-2.603-2.514-3.872c-1.346-2.324-2.293-3.999-3.592-3.999l-0.406,0.005l-0.168,0.337
	c-1.574,2.944-3.234,6.265-2.865,9.634c-3.384-1.372-6.48-3.564-6.654-10.444l-1.221-0.19l-0.963,2.656
	c-1.395,3.833-2.76,7.593-3.627,9.258c-3.491-7.085-5.49-9.121-6.681-10.332l-0.599-0.581c-0.017-0.029-0.425,0.723-0.425,0.723
	c-0.952,1.768-1.818,3.145-2.58,4.38c-1.003,1.582-1.608,2.788-1.982,3.945c-2.08-3.34-2.771-4.321-2.929-4.487
	C196.705,141.067,193.798,135.217,200.272,125.803L200.272,125.803z M339.854,188.42c3.297,1.992,7.359,1.738,12.04-0.723
	l1.081-0.591l-0.156,1.235c-1.455,9.302-5.029,15.229-10.391,17.124c-7.256,2.568-17.656-2.197-30.924-14.014
	c3.418,15.098,7.389,31.831,17.301,36.953c4.561,2.349,10,2.144,16.621-0.634l1.02-0.44l-0.146,1.099
	c-1.821,12.828-6.387,21.714-12.9,25.02c-4.535,2.29-9.756,1.87-15.576-1.274c-15.482-8.33-23.744-33.906-24.082-35.02
	c-0.146-0.449-0.287-0.903-0.42-1.352l-0.176,0.176c-2.496,2.485-6.086,3.604-9.875,3.101c-4.969-0.694-9.461-4.004-12.346-9.126
	c-1.717-3.56-2.977-6.602-4.094-9.263c-0.887-2.134-1.695-3.906-2.477-5.571c0.516,4.307,2.029,8.55,4.445,12.012
	c0.37,0.366,1.287,1.318,0.59,2.051c-1.383,1.416-11.008-3.076-12.871-4.922c-0.396-0.391-1.035-0.43-1.613-0.107
	c-1.375,0.786-2.396,3.467-1.129,8.721c2.012,8.335,4.266,10.913,6.844,13.544c3.467-3.325,10.768-8.408,16.447-6.333
	c4.123,1.49,6.576,6.456,7.346,14.673c4.658,4.727,8.016,12.612,5.613,17.802c-1.202,2.568-4.322,5.425-12.246,4.785
	c0.041,0.166,0.109,0.273,0.138,0.43l0.022,0.049v0.073c-0.207,6.836-2.055,11.445-5.502,13.706
	c-3.457,2.266-8.363,2.144-14.574-0.386l-0.682-0.278l0.363-0.635c1.51-2.593,5.047-8.638,3.557-11.865
	c-0.512-1.089-1.584-1.748-3.203-2.095c-0.307,0.327-0.611,0.659-0.977,1.113c-2.086,2.471-5.24,6.216-10.039,5.132
	c-7.828-1.846-11.789-5.215-11.789-10.039c-0.002-5.366,1.365-11.001,10.826-15.845c-0.127-4.297-2.559-5.644-6.229-7.568
	c-3.473-1.797-7.82-4.068-11.258-9.869l-0.195-0.268l-1.879-0.186c-0.277,0.425-0.729,1.147-0.746,1.167
	c-5.289,7.784-6.768,21.167-5.248,22.437c0.256,0.225,0.871,0.615,1.623,1.055c3.033,1.855,8.728,5.292,8.408,9.409
	c-0.223,2.695-2.873,5.024-8.105,7.148l-0.098,0.049c-0.629,0.542-2.205,5.352,0.193,11.372c2.377,5.928,8.887,13.389,23.256,11.973
	l0.912-0.103l-0.229,0.879c-2.644,9.551-5.943,14.282-16.295,14.761c5.26,4.146,11.104,7.251,11.162,7.28l0.412,0.2l-0.074,0.449
	c-0.016,0.083-1.539,9.189-15.855,9.434c-0.398,6.631-7.549,12.676-12.367,16.714l-0.41,0.366l-0.417-0.366
	c-4.817-4.048-11.964-10.103-12.4-16.704c-14.257-0.234-15.817-9.331-15.817-9.419l-0.065-0.454l0.393-0.195
	c0.066-0.034,5.926-3.14,11.185-7.295c-10.335-0.474-13.638-5.2-16.341-14.746l-0.249-0.879l0.92,0.103
	c14.333,1.406,19.545-6.021,21.931-11.909c2.438-6.021,2.183-10.84,1.549-11.46l-0.109-0.054c-5.253-2.109-7.893-4.443-8.117-7.139
	c-0.335-4.102,5.306-7.539,8.366-9.395c0.728-0.459,1.353-0.859,1.628-1.083c1.501-1.265,0.051-14.614-5.29-22.452
	c0,0-0.496-0.811-0.484-0.796c-0.4-0.542-0.791-0.85-1.1-0.85c-0.357,0.01-0.669,0.406-0.825,0.621c0,0-0.357,0.537-0.347,0.518
	c-3.511,5.776-7.821,8.134-11.312,10.054c-3.562,1.953-5.905,3.32-6.064,7.221c9.473,4.844,10.833,10.474,10.835,15.835
	c0.005,4.829-3.957,8.198-11.738,10.054c-4.81,1.079-7.956-2.666-10.07-5.146c-0.354-0.43-0.662-0.767-0.971-1.094
	c-1.615,0.352-2.708,1.006-3.213,2.095c-1.487,3.218,1.95,9.058,3.586,11.86l0.366,0.64l-0.676,0.278
	c-6.111,2.461-10.965,2.632-14.395,0.508c-3.213-1.997-5.101-6.001-5.579-11.88l-0.01-0.039v-0.034
	c0.032-0.869,0.21-1.636,0.356-2.432c-8.142,0.752-11.315-2.153-12.543-4.746c-2.441-5.2,0.896-13.081,5.566-17.832
	c0.754-8.212,3.208-13.173,7.332-14.678c6.55-2.427,14.547,4.512,16.471,6.319c2.479-2.559,4.805-5.21,6.831-13.545
	c1.253-5.254,0.234-7.954-1.157-8.726c-0.566-0.317-1.201-0.278-1.591,0.117c-1.861,1.797-11.355,6.138-12.747,4.717
	c-0.447-0.469-0.291-1.123,0.513-1.914l-0.062,0.103c2.412-3.491,3.93-7.754,4.46-12.051c-0.843,1.685-1.641,3.53-2.571,5.723
	c-1.09,2.642-2.339,5.63-4.015,9.155c-2.889,5.098-7.383,8.418-12.349,9.106c-3.767,0.503-7.334-0.615-9.82-3.09l-0.207-0.215
	c-0.142,0.468-0.301,0.938-0.418,1.406c-0.356,1.094-8.59,26.685-24.035,35.02c-5.845,3.149-11.101,3.584-15.63,1.279
	c-6.492-3.291-11.06-12.172-12.878-25.005l-0.157-1.093l1.011,0.435c6.613,2.778,12.045,2.983,16.616,0.634
	c9.906-5.122,13.886-21.855,17.278-36.958c-13.232,11.807-23.635,16.587-30.901,14.028c-5.354-1.89-8.938-7.808-10.391-17.109
	l-0.195-1.255l1.115,0.596c4.671,2.48,8.691,2.744,12.007,0.742c4.976-2.988,8.076-11.123,8.235-21.27
	c-8.973,2.129-14.368-0.64-17.292-3.438c-5.549-5.239-6.714-14.082-5.406-20.503l0.252-1.274l0.854,0.996
	c3.718,4.414,7.063,6.118,9.905,5.068c5.981-2.202,8.632-15.815,8.63-20.605c-0.007-15.605,5.563-27.969,15.302-33.94
	c7.295-4.482,16.136-4.844,23.67-0.972c4.951,2.544,8.188,6.299,9.614,11.167c2.316,7.896-0.645,17.476-3.975,23.53
	c17.26,13.936,46.391,10.498,50.71,9.902c10.188-14.116,15.136-23.809,15.132-29.6c-0.262-7.188-2.119-11.738-5.506-13.521
	c-4.899-2.598-11.53,1.533-11.611,1.563l-0.657,0.43l-0.262-0.757c-0.142-0.381-3.228-9.453,0.42-13.374
	c1.399-1.475,4.224-1.66,6.699-1.812c1.689-0.112,3.777-0.244,4.048-0.884c3.589-7.9,8.996-10.122,17.529-7.212
	c4.426,1.157,15.178,4.697,18.824,12.817c5.971,16.343,9.941,20.195,10.004,20.244l-0.785,0.991
	c-1.619-1.084-6.248-3.638-8.23-2.559c-0.691,0.366-1.041,1.172-1.041,2.446v0.215c0.006,10.85,2.77,21.274,8.189,30.967
	c4.338,0.591,33.59,3.965,50.826-9.927c-3.385-6.05-6.374-15.61-4.053-23.501c1.432-4.888,4.666-8.647,9.6-11.201
	c8.014-4.106,16.627-4.136,23.6-0.078c8.564,4.932,13.686,15.435,14.389,29.531c0.006,5.527,2.193,22.412,8.856,25.21
	c2.755,1.138,6.065-0.2,9.894-4.004l0.826-0.825l0.199,1.138c1.188,5.562,2.145,13.555-2.455,18.701
	c-3.6,4.004-10.117,5.586-19.297,4.834C331.734,177.239,334.844,185.403,339.854,188.42L339.854,188.42L339.854,188.42z
	 M215.492,388.503L215.492,388.503h-0.338l-21.828,0.361l12.71-28.91c0,0,0.688-2.478,2.327,0l7.129,28.5h-0.02L215.492,388.503z"/>
</svg>
